<svg width="20" height="20" viewBox="0 0 20 20" fill="none" xmlns="http://www.w3.org/2000/svg">
<path fill-rule="evenodd" clip-rule="evenodd" d="M18.3333 10C18.3333 14.6025 14.6025 18.3334 9.99997 18.3334C8.66664 18.3334 7.40664 18.02 6.28997 17.4634C5.99499 17.3109 5.65447 17.2715 5.33247 17.3525L3.47747 17.8492C3.29386 17.8982 3.1006 17.898 2.91708 17.8487C2.73355 17.7994 2.56623 17.7027 2.4319 17.5683C2.29757 17.4339 2.20096 17.2665 2.15177 17.0829C2.10257 16.8994 2.10253 16.7061 2.15164 16.5225L2.64747 14.6675C2.72812 14.3457 2.6884 14.0055 2.5358 13.7109C1.96216 12.5581 1.6646 11.2876 1.66664 10C1.66664 5.39752 5.39747 1.66669 9.99997 1.66669C14.6025 1.66669 18.3333 5.39752 18.3333 10ZM9.99997 6.04169C10.1657 6.04169 10.3247 6.10753 10.4419 6.22474C10.5591 6.34195 10.625 6.50093 10.625 6.66669V6.67502C11.5325 6.90419 12.2916 7.61919 12.2916 8.61085C12.2916 8.77661 12.2258 8.93558 12.1086 9.05279C11.9914 9.17 11.8324 9.23585 11.6666 9.23585C11.5009 9.23585 11.3419 9.17 11.2247 9.05279C11.1075 8.93558 11.0416 8.77661 11.0416 8.61085C11.0416 8.29085 10.6866 7.84752 9.99997 7.84752C9.3133 7.84752 8.9583 8.29085 8.9583 8.61085C8.9583 8.93085 9.3133 9.37502 9.99997 9.37502C11.1541 9.37502 12.2916 10.175 12.2916 11.3892C12.2916 12.3809 11.5325 13.0967 10.625 13.325V13.3334C10.625 13.4991 10.5591 13.6581 10.4419 13.7753C10.3247 13.8925 10.1657 13.9584 9.99997 13.9584C9.83421 13.9584 9.67524 13.8925 9.55803 13.7753C9.44082 13.6581 9.37497 13.4991 9.37497 13.3334V13.325C8.46747 13.0967 7.7083 12.3809 7.7083 11.3892C7.7083 11.2234 7.77415 11.0645 7.89136 10.9472C8.00857 10.83 8.16754 10.7642 8.3333 10.7642C8.49906 10.7642 8.65803 10.83 8.77524 10.9472C8.89245 11.0645 8.9583 11.2234 8.9583 11.3892C8.9583 11.7092 9.3133 12.1525 9.99997 12.1525C10.6866 12.1525 11.0416 11.7092 11.0416 11.3892C11.0416 11.0692 10.6866 10.625 9.99997 10.625C8.8458 10.625 7.7083 9.82502 7.7083 8.61085C7.7083 7.61919 8.46747 6.90419 9.37497 6.67502V6.66669C9.37497 6.50093 9.44082 6.34195 9.55803 6.22474C9.67524 6.10753 9.83421 6.04169 9.99997 6.04169Z" fill="white"/>
</svg>
