<svg width="30" height="30" viewBox="0 0 30 30" fill="none" xmlns="http://www.w3.org/2000/svg">
<path d="M4.75 4.75C3 6.51667 3 9.34167 3 15V16C3 21.65 3 24.475 4.75 26.25C6.51667 28 9.34167 28 15 28H16C21.65 28 24.475 28 26.25 26.25C28 24.4833 28 21.6583 28 16V15C28 9.35 28 6.525 26.25 4.75C24.4833 3 21.6583 3 16 3H15C9.35 3 6.525 3 4.75 4.75ZM7.21667 10.6083H10.0833C10.175 15.375 12.275 17.3917 13.9417 17.8083V10.6083H16.6333V14.7167C18.275 14.5417 20.0083 12.6667 20.5917 10.6H23.275C23.0563 11.6698 22.6193 12.6831 21.9912 13.5763C21.3632 14.4696 20.5577 15.2238 19.625 15.7917C20.6659 16.3095 21.5851 17.0423 22.322 17.9415C23.0589 18.8407 23.5967 19.886 23.9 21.0083H20.9417C20.3083 19.0333 18.725 17.5 16.6333 17.2917V21.0083H16.3C10.6 21.0083 7.35 17.1083 7.21667 10.6083Z" fill="white"/>
</svg>
